<svg width="16" height="16" viewBox="0 0 16 16" fill="none" xmlns="http://www.w3.org/2000/svg">
<g clip-path="url(#clip0_54914_363)">
<path d="M8 0C3.58067 0 0 3.58067 0 8C0 12.4193 3.58067 16 8 16C12.4193 16 16 12.4193 16 8C16.0073 3.58067 12.4193 0 8 0ZM8.46667 15.074C4.558 15.074 1.39267 11.9087 1.39267 8C1.39267 4.09133 4.558 0.926 8.46667 0.926C12.3753 0.926 15.5407 4.09133 15.5407 8C15.5407 11.9087 12.3753 15.074 8.46667 15.074ZM4.69667 2.27533C1.532 4.09867 0.452667 8.13867 2.27533 11.3033C4.09867 14.4613 8.146 15.5473 11.3033 13.7247C14.468 11.9013 15.5473 7.854 13.7247 4.69667C11.9013 1.53133 7.86133 0.452 4.69667 2.27533ZM11.2453 12.6893C8.52533 14.2573 5.054 13.324 3.486 10.6107C1.918 7.89067 2.85133 4.41933 5.56467 2.85133C8.28467 1.28333 11.756 2.21667 13.324 4.93C14.8913 7.64267 13.9653 11.1213 11.2453 12.6893ZM3.486 5.38933C2.042 7.88333 2.90267 11.0773 5.39667 12.514C7.89067 13.958 11.0847 13.0973 12.5287 10.6033C13.9727 8.10933 13.112 4.91533 10.618 3.47867C8.11667 2.042 4.92267 2.89533 3.486 5.38933ZM12.0473 9.80133C10.8293 11.9087 8.13867 12.6307 6.03067 11.4127C3.92333 10.1947 3.20133 7.504 4.41867 5.396C5.636 3.288 8.32733 2.56667 10.4353 3.784C12.5433 4.99533 13.2653 7.694 12.0473 9.80133ZM4.062 8C4.062 10.1807 5.82667 11.9453 8.00733 11.9453C10.188 11.9453 11.9527 10.1807 11.9527 8C11.9527 5.81933 10.188 4.05467 8.00733 4.05467C5.82667 4.05467 4.062 5.81933 4.062 8ZM11.136 7.53333C11.136 9.262 9.736 10.662 8.00733 10.662C6.27867 10.662 4.87867 9.262 4.87867 7.53333C4.87867 5.80467 6.27867 4.40467 8.00733 4.40467C9.72867 4.40467 11.136 5.80467 11.136 7.53333Z" fill="black"/>
</g>
<defs>
<clipPath id="clip0_54914_363">
<rect width="16" height="16" fill="white"/>
</clipPath>
</defs>
</svg>
